<svg xmlns="http://www.w3.org/2000/svg" width="64" height="64" viewBox="0 0 64 64"><linearGradient id="a1" gradientUnits="userSpaceOnUse" x1="1.593" y1="32" x2="61.8565" y2="32"><stop offset="0" stop-color="#FFF7B0"/><stop offset="0.21" stop-color="#FFEC41"/><stop offset="0.84" stop-color="#E2CC00"/><stop offset="1" stop-color="#C3AF00"/></linearGradient><path fill="url(#a1)" d="M58.449,26.803l-25.895,0.205l-0.158-2.863c-0.012-1.023-1.239-1.45-2.041-0.921l-2.916,2.381c-1.535-3.327-4.258-6.078-7.634-7.407c-1.527-0.644-3.157-0.937-4.783-0.923c-3.58,0.026-7.158,1.549-9.673,4.185c-4.511,4.517-5.404,12.104-2.422,17.737c2.545,5.094,8.318,8.19,13.844,7.407c4.9-0.589,9.033-4.23,10.93-8.812l3.509,2.015c1.027,0.64,1.603-0.162,1.603-1.104l-0.067-3.762l3.993,0.093l2.713,2.555l3.533-3.578l3.229,3.082h2.387l3.306-3.313l2.395,2.023l3.047-0.126l2.644-2.539l2.847-2.622C62.353,28.907,60.978,27.913,58.449,26.803z M9.161,34.704c-1.258,0.168-2.574-0.502-3.153-1.602c-0.68-1.215-0.474-2.851,0.551-3.827c0.836-0.826,2.179-1.146,3.294-0.699c1.168,0.435,1.999,1.577,2.045,2.79c0.002,0.061,0.006,0.124,0.006,0.188C11.941,33.062,10.722,34.526,9.161,34.704z"/><path fill="#BE9700" d="M61.407,30.177l-34.31,0.425l3.936,1.233l29.143-0.428l1.262-1.187C61.429,30.206,61.417,30.192,61.407,30.177z"/><linearGradient id="a2" gradientUnits="userSpaceOnUse" x1="42.5844" y1="20.5733" x2="9.0263" y2="43.9572"><stop offset="0" stop-color="#7D6400"/><stop offset="1" stop-color="#BE9700"/></linearGradient><path fill="url(#a2)" d="M15.051,47.889c-5.434,0-10.725-3.283-13.168-8.172c-3.289-6.215-2.184-14.249,2.641-19.08c2.711-2.842,6.541-4.498,10.488-4.526c0.002,0,0.003,0,0.004,0c1.92,0,3.644,0.342,5.241,1.015c3.093,1.218,5.792,3.613,7.555,6.671l1.807-1.475c1.87-1.26,3.919,0.034,3.942,1.809l0.095,1.705l24.784-0.197c0.213-0.007,0.327,0.033,0.477,0.098c2.559,1.123,4.395,2.309,5.034,4.445c0.128,0.426,0.001,0.889-0.326,1.19l-5.474,5.144c-0.204,0.197-0.474,0.312-0.758,0.324l-3.046,0.127c-0.27,0.02-0.576-0.085-0.8-0.274l-1.576-1.332l-2.548,2.555c-0.219,0.219-0.516,0.342-0.825,0.342h-2.387c-0.3,0-0.588-0.115-0.804-0.323l-2.4-2.292l-2.728,2.764c-0.444,0.45-1.167,0.462-1.627,0.03l-2.388-2.248l-2.334-0.055l0.046,2.548c0,1.994-1.74,3.138-3.383,2.114l-2.369-1.36c-2.328,4.549-6.648,7.765-11.314,8.325C16.315,47.845,15.682,47.889,15.051,47.889z M15.128,18.439c-3.37,0.025-6.674,1.454-8.938,3.825C2.118,26.343,1.164,33.38,3.954,38.653c2.304,4.612,7.581,7.517,12.653,6.799c4.268-0.514,8.191-3.694,10.017-8.104c0.129-0.309,0.384-0.549,0.701-0.657c0.316-0.11,0.664-0.076,0.955,0.092l3.367,1.933c0-0.005,0-0.009,0-0.013l-0.067-3.74c-0.006-0.318,0.118-0.623,0.344-0.847c0.224-0.223,0.536-0.329,0.848-0.339l3.993,0.093c0.288,0.007,0.563,0.12,0.772,0.317l1.885,1.775l2.734-2.77c0.447-0.452,1.172-0.464,1.633-0.024l2.891,2.76h1.437l2.964-2.971c0.429-0.429,1.114-0.456,1.576-0.067l2.049,1.73l2.152-0.089l4.582-4.31c-0.486-0.788-1.455-1.452-3.231-2.25l-25.642,0.204c-0.004,0-0.007,0-0.01,0c-0.617,0-1.129-0.483-1.163-1.1l-0.158-2.864l-3.059,2.298c-0.28,0.227-0.65,0.316-0.998,0.232c-0.35-0.082-0.644-0.32-0.795-0.647c-1.452-3.148-4.005-5.63-7.004-6.81C18.042,18.719,16.621,18.439,15.128,18.439z M8.772,35.895c-1.587,0-3.076-0.883-3.795-2.25c-0.94-1.68-0.618-3.883,0.779-5.213c1.143-1.129,3.034-1.535,4.53-0.937c1.585,0.589,2.711,2.131,2.774,3.828c0.001,0.014,0.007,0.216,0.007,0.23c0.054,2.118-1.639,4.065-3.774,4.309C9.134,35.882,8.953,35.895,8.772,35.895z M8.781,29.538c-0.52,0-1.045,0.211-1.404,0.565c-0.633,0.603-0.781,1.665-0.352,2.431c0.361,0.686,1.19,1.13,1.983,1.017c0.956-0.109,1.755-1.028,1.731-1.968c-0.033-0.916-0.574-1.648-1.292-1.915C9.223,29.578,9.008,29.538,8.781,29.538z"/></svg>