<svg width="22.445mm" height="21.957mm" clip-rule="evenodd" fill-rule="evenodd" stroke-linejoin="round" stroke-miterlimit="1.4142" version="1.1" xmlns="http://www.w3.org/2000/svg">
 <title>Kyma Icon</title>
 <rect x="-321.66" y="-226.34" width="841.89" height="595.28" fill="none"/>
 <g transform="translate(0 -.00066499)">
  <path d="m39.978 0.5565-29.509 14.211c-1.541 0.741-2.66 2.145-3.04 3.812l-7.288 31.931c-0.381 1.667 0.019 3.417 1.085 4.755l20.42 25.605c1.066 1.338 2.684 2.117 4.394 2.117h32.751c1.711 0 3.329-0.779 4.395-2.117l20.42-25.605c1.066-1.338 1.466-3.088 1.086-4.755l-7.288-31.931c-0.381-1.667-1.5-3.071-3.041-3.812l-29.508-14.211c-1.541-0.742-3.336-0.742-4.877 0" fill="#2b54aa" fill-rule="nonzero"/>
  <g transform="translate(-321.66 -226.34)" opacity=".21001">
   <g transform="translate(388.87,301.54)">
    <clipPath id="a">
     <rect x="-67.201" y="-50.923" width="67.201" height="58.718" clip-rule="nonzero"/>
    </clipPath>
    <g clip-path="url(#a)">
     <path d="m0-43.128c-2.998 0-5.541 0.437-7.778 1.169v-8.964c-8.467 0-12.379 4.356-16.637 8.38-4.258-4.024-8.17-8.38-16.637-8.38l-23.825 16.674-2.184 9.567c-0.38 1.667 0.019 3.417 1.085 4.755l20.42 25.606c1.067 1.338 2.685 2.116 4.395 2.116h6.741l34.42-22.062z" fill="#1d1d1b" fill-rule="nonzero"/>
    </g>
   </g>
  </g>
  <g transform="matrix(19.413 0 0 -19.413 30.968 35.686)">
   <path d="m-0.248-0.586h1.621v0.399c-0.81 0-0.81 0.775-1.621 0.775z" fill="url(#e)" fill-rule="nonzero"/>
  </g>
  <g transform="matrix(0 26.759 -26.759 0 44.328 23.656)">
   <path d="m0.585 0.612h0.29v-1.176h-0.852c0 0.588 0.562 0.588 0.562 1.176z" fill="url(#d)" fill-rule="nonzero"/>
  </g>
  <g transform="matrix(42.016 0 0 -42.016 13.508 47.476)">
   <path d="m0.116-0.32h0.948v0.233c-0.474 0-0.474 0.454-0.948 0.454z" fill="url(#c)" fill-rule="nonzero"/>
  </g>
  <g transform="matrix(42.396 56.139 -56.139 42.396 35.988 37.496)">
   <path d="m0.079 0.216-0.031 0.042c-0.025 0.032-0.018 0.078 0.014 0.102l0.053 0.041 0.102-0.135 0.316-0.419-0.327-0.248c-0.171 0.226 0.044 0.391-0.127 0.617z" fill="url(#b)" fill-rule="nonzero"/>
  </g>
 </g>
 <defs>
  <linearGradient id="e" x2="1" gradientTransform="matrix(.052734 -.99861 -.99861 -.052734 .5138 .54165)" gradientUnits="userSpaceOnUse">
   <stop stop-color="#fff" offset="0"/>
   <stop stop-color="#fff" offset=".03"/>
   <stop stop-color="#73c6f0" offset=".53"/>
   <stop stop-color="#508ecb" offset="1"/>
  </linearGradient>
  <linearGradient id="d" x2="1" gradientTransform="matrix(.95871 -.28439 -.28439 -.95871 .021847 .15047)" gradientUnits="userSpaceOnUse">
   <stop stop-color="#fff" offset="0"/>
   <stop stop-color="#fff" offset=".03"/>
   <stop stop-color="#73c6f0" offset=".54"/>
   <stop stop-color="#508ecb" offset="1"/>
  </linearGradient>
  <linearGradient id="c" x2="1" gradientTransform="matrix(.32034 -.9473 -.9473 -.32034 .35428 .4938)" gradientUnits="userSpaceOnUse">
   <stop stop-color="#fff" offset="0"/>
   <stop stop-color="#fff" offset=".03"/>
   <stop stop-color="#73c6f0" offset=".6"/>
   <stop stop-color="#508ecb" offset="1"/>
  </linearGradient>
  <linearGradient id="b" x2="1" gradientTransform="matrix(1,0,0,-1,0,-1.724e-6)" gradientUnits="userSpaceOnUse">
   <stop stop-color="#fff" offset="0"/>
   <stop stop-color="#fff" offset=".03"/>
   <stop stop-color="#73c6f0" offset=".49"/>
   <stop stop-color="#508ecb" offset="1"/>
  </linearGradient>
 </defs>
</svg>
