<svg width="6.7491mm" height="5.3799mm" version="1.1" xmlns="http://www.w3.org/2000/svg">
 <title>Kyma Icon Silhouette</title>
 <g fill="#0b74de">
  <path d="m0 5v9.6a4.575 4.575 0 0 1 2.0833-0.5h2.0834a11.95 11.95 0 0 0 7.6166-2.5c-0.55-0.5-1.0916-1-1.6166-1.5-2.6667-2.4917-5.3917-4.8583-10.167-5.1z"/>
  <path d="m25.508 5.1167c-4.675 0.225-7.175 2.5666-9.7666 5.0416-2.8417 2.7-5.8334 5.4917-11.617 5.4917h-2.0417a2.0583 2.0583 0 0 0-1.8166 1.0917 2.1167 2.1167 0 0 0-0.2667 0.975v2.6166h25.5z"/>
  <path d="M 12.2583,4.1667 C 10.0833,2.075 7.9,0 3.55,0 v 4.1667 a 13.8,13.8 0 0 1 5,2.6916 13.275,13.275 0 0 0 3.7083,-2.6916 z"/>
  <path d="m21.283 0.7167c-3.6166 0.2083-5.525 2.0333-7.5 3.9583a18.042 18.042 0 0 1-4.0083 3.1417c0.4583 0.4166 0.9167 0.8333 1.3583 1.275 0.4417 0.4416 1.1584 1.0916 1.7584 1.6166 0.6166-0.5333 1.2166-1.1 1.825-1.6666 1.8833-1.7917 3.825-3.6 6.6083-4.6334z"/>
 </g>
</svg>
