<?xml version="1.0" encoding="iso-8859-1"?>
<!-- Generator: Adobe Illustrator 19.0.0, SVG Export Plug-In . SVG Version: 6.00 Build 0)  -->
<svg version="1.1" id="Layer_1" xmlns="http://www.w3.org/2000/svg" xmlns:xlink="http://www.w3.org/1999/xlink" x="0px" y="0px"
	 viewBox="0 0 512 512" style="enable-background:new 0 0 512 512;" xml:space="preserve">
<circle style="fill:#FFC61B;" cx="256" cy="256" r="256"/>
<path style="fill:#D3AC09;" d="M301.404,507.985c112.857-20.201,200.058-114.362,209.694-230.541L315.935,82.28l-29.479-14.186
	l-34.047-6.034l-34.047,8.189l-22.299,18.137l74.7,74.7l-61.807,253.695L301.404,507.985z"/>
<g>
	<path style="fill:#FFFFFF;" d="M232.296,426.667h47.407c18.329,0,33.185-14.858,33.185-33.185V153.571
		c0-6.268-5.08-11.348-11.348-11.348H210.46c-6.268,0-11.348,5.08-11.348,11.348v239.911
		C199.111,411.808,213.969,426.667,232.296,426.667z"/>
	<path style="fill:#FFFFFF;" d="M210.46,142.222c-6.268,0-11.348,5.08-11.348,11.348v239.911c0,18.329,14.858,33.185,33.185,33.185
		H256V142.222H210.46z"/>
</g>
<path style="fill:#E5E5E5;" d="M301.54,142.222H256v284.444h23.704c18.329,0,33.185-14.858,33.185-33.185V153.571
	C312.889,147.303,307.809,142.222,301.54,142.222z"/>
<g>
	<path style="fill:#366695;" d="M280.569,330.702h-14.801v-14.801c0-2.615-2.12-4.737-4.737-4.737h-10.064
		c-2.615,0-4.737,2.12-4.737,4.737v14.801h-14.801c-2.615,0-4.737,2.12-4.737,4.737v10.064c0,2.615,2.12,4.737,4.737,4.737h14.801
		v14.801c0,2.615,2.12,4.737,4.737,4.737h10.064c2.615,0,4.737-2.12,4.737-4.737v-14.801h14.801c2.615,0,4.737-2.12,4.737-4.737
		v-10.064C285.306,332.822,283.186,330.702,280.569,330.702z"/>
	<path style="fill:#366695;" d="M250.968,311.165c-2.615,0-4.737,2.12-4.737,4.737v14.801h-14.801c-2.615,0-4.737,2.12-4.737,4.737
		v10.064c0,2.617,2.12,4.737,4.737,4.737h14.801v14.801c0,2.615,2.12,4.737,4.737,4.737H256v-58.613h-5.032V311.165z"/>
</g>
<path style="fill:#273B7A;" d="M280.569,330.702h-14.801v-14.801c0-2.615-2.12-4.737-4.737-4.737H256v58.613h5.032
	c2.615,0,4.737-2.12,4.737-4.737v-14.801h14.801c2.615,0,4.737-2.12,4.737-4.737v-10.064
	C285.306,332.822,283.186,330.702,280.569,330.702z"/>
<g>
	<path style="fill:#FF6262;" d="M276.113,126.419c-1.103,0-2.205-0.421-3.048-1.262c-4.56-4.56-10.619-7.07-17.065-7.07
		c-6.446,0-12.507,2.51-17.065,7.07c-1.684,1.684-4.411,1.684-6.094,0c-1.684-1.683-1.684-4.411,0-6.094
		c6.185-6.187,14.41-9.594,23.161-9.594c8.751,0,16.975,3.408,23.161,9.594c1.684,1.684,1.684,4.413,0,6.094
		C278.318,125.999,277.216,126.419,276.113,126.419z"/>
	<path style="fill:#FF6262;" d="M220.66,107.38c-1.103,0-2.205-0.421-3.048-1.262c-1.684-1.683-1.684-4.411,0-6.094
		C227.864,89.769,241.497,84.12,256,84.118c0.002,0,0.003,0,0.007,0c14.498,0,28.127,5.644,38.381,15.898
		c1.684,1.683,1.684,4.411,0,6.094c-1.684,1.683-4.411,1.684-6.094,0c-8.625-8.623-20.09-13.372-32.287-13.372
		c-0.002,0-0.002,0-0.005,0c-12.197,0-23.668,4.753-32.292,13.381C222.867,106.96,221.763,107.38,220.66,107.38z"/>
	<path style="fill:#FF6262;" d="M199.111,89.648c-1.103,0-2.205-0.421-3.048-1.262c-1.684-1.683-1.684-4.411,0-6.094
		c33.047-33.052,86.825-33.056,119.872-0.01c1.684,1.683,1.684,4.411,0,6.094c-1.684,1.683-4.411,1.684-6.094,0
		c-29.686-29.682-77.991-29.68-107.684,0.01C201.316,89.228,200.214,89.648,199.111,89.648z"/>
</g>
<g>
	<path style="fill:#E03A00;" d="M279.159,119.062c-6.185-6.187-14.41-9.594-23.159-9.594v8.62c6.446,0,12.507,2.51,17.065,7.07
		c0.841,0.841,1.945,1.262,3.048,1.262s2.205-0.421,3.048-1.262C280.843,123.475,280.843,120.746,279.159,119.062z"/>
	<path style="fill:#E03A00;" d="M294.388,100.016c-10.252-10.252-23.883-15.898-38.381-15.898c-0.003,0-0.005,0-0.007,0v8.62
		c0.002,0,0.003,0,0.005,0c12.197,0,23.664,4.749,32.287,13.372c1.684,1.684,4.411,1.684,6.094,0S296.07,101.697,294.388,100.016z"
		/>
	<path style="fill:#E03A00;" d="M315.937,82.28c-16.524-16.522-38.229-24.783-59.935-24.781v8.616
		c19.499-0.002,38.998,7.418,53.841,22.259c1.684,1.684,4.411,1.684,6.094,0S317.619,83.963,315.937,82.28z"/>
</g>
<circle style="fill:#366695;" cx="223.349" cy="191.25" r="7.866"/>
<circle style="fill:#273B7A;" cx="288.651" cy="191.25" r="7.866"/>
<path style="fill:#366695;" d="M263.866,191.245c0-4.344-3.522-7.866-7.866-7.866v15.732
	C260.344,199.111,263.866,195.589,263.866,191.245z"/>
<path id="SVGCleanerId_0" style="fill:#366695;" d="M256,183.379c-4.344,0-7.866,3.522-7.866,7.866s3.522,7.866,7.866,7.866l0,0
	V183.379L256,183.379z"/>
<g>
	<circle style="fill:#FF0F27;" cx="223.349" cy="162.806" r="7.866"/>
	<circle style="fill:#FF0F27;" cx="288.651" cy="162.806" r="7.866"/>
</g>
<circle style="fill:#366695;" cx="223.349" cy="219.695" r="7.866"/>
<circle style="fill:#273B7A;" cx="288.651" cy="219.695" r="7.866"/>
<path id="SVGCleanerId_1" style="fill:#366695;" d="M256,211.823c-4.344,0-7.866,3.522-7.866,7.866c0,4.344,3.522,7.866,7.866,7.866
	l0,0V211.823L256,211.823z"/>
<g>
	<path style="fill:#366695;" d="M263.866,219.689c0-4.344-3.522-7.866-7.866-7.866v15.732
		C260.344,227.556,263.866,224.034,263.866,219.689z"/>
	<circle style="fill:#366695;" cx="223.349" cy="248.139" r="7.866"/>
</g>
<circle style="fill:#273B7A;" cx="288.651" cy="248.139" r="7.866"/>
<path id="SVGCleanerId_2" style="fill:#366695;" d="M256,240.268c-4.344,0-7.866,3.522-7.866,7.866S251.656,256,256,256l0,0V240.268
	L256,240.268z"/>
<g>
	<path style="fill:#366695;" d="M263.866,248.134c0-4.344-3.522-7.866-7.866-7.866V256C260.344,256,263.866,252.478,263.866,248.134
		z"/>
	<circle style="fill:#366695;" cx="223.349" cy="276.583" r="7.866"/>
</g>
<circle style="fill:#273B7A;" cx="288.651" cy="276.583" r="7.866"/>
<circle style="fill:#366695;" cx="256" cy="276.583" r="7.866"/>
<g>
	<path id="SVGCleanerId_0_1_" style="fill:#366695;" d="M256,183.379c-4.344,0-7.866,3.522-7.866,7.866s3.522,7.866,7.866,7.866l0,0
		V183.379L256,183.379z"/>
</g>
<g>
	<path style="fill:#273B7A;" d="M263.866,191.245c0-4.344-3.522-7.866-7.866-7.866v15.732
		C260.344,199.111,263.866,195.589,263.866,191.245z"/>
	<path style="fill:#273B7A;" d="M263.866,219.689c0-4.344-3.522-7.866-7.866-7.866v15.732
		C260.344,227.556,263.866,224.034,263.866,219.689z"/>
</g>
<g>
	<path id="SVGCleanerId_1_1_" style="fill:#366695;" d="M256,211.823c-4.344,0-7.866,3.522-7.866,7.866
		c0,4.344,3.522,7.866,7.866,7.866l0,0V211.823L256,211.823z"/>
</g>
<g>
	<path id="SVGCleanerId_2_1_" style="fill:#366695;" d="M256,240.268c-4.344,0-7.866,3.522-7.866,7.866S251.656,256,256,256l0,0
		V240.268L256,240.268z"/>
</g>
<path style="fill:#273B7A;" d="M263.866,248.134c0-4.344-3.522-7.866-7.866-7.866V256C260.344,256,263.866,252.478,263.866,248.134z
	"/>
<path style="fill:#366695;" d="M256,268.712c-4.344,0-7.866,3.522-7.866,7.866s3.522,7.866,7.866,7.866l0,0V268.712L256,268.712z"/>
<path style="fill:#273B7A;" d="M263.866,276.578c0-4.344-3.522-7.866-7.866-7.866v15.732
	C260.344,284.444,263.866,280.922,263.866,276.578z"/>
<g>
</g>
<g>
</g>
<g>
</g>
<g>
</g>
<g>
</g>
<g>
</g>
<g>
</g>
<g>
</g>
<g>
</g>
<g>
</g>
<g>
</g>
<g>
</g>
<g>
</g>
<g>
</g>
<g>
</g>
</svg>
